<svg xmlns="http://www.w3.org/2000/svg" style="display: none;"><symbol id="youtube" viewBox="0 0 496 496"><title>youtube</title><g> <g> <path d="M303.792,230l-76.4-41.584c-4.96-2.688-10.96-2.592-15.824,0.304c-4.848,2.88-7.824,8.112-7.824,13.76l0.032,82.8 c0,5.632,2.976,10.848,7.808,13.744c2.528,1.504,5.36,2.256,8.192,2.256c2.608,0,5.232-0.64,7.6-1.92l76.368-41.232 c5.168-2.784,8.4-8.176,8.4-14.048C312.144,238.208,308.944,232.8,303.792,230z M235.776,258.464l-0.016-29.072l26.816,14.592 L235.776,258.464z"/> </g> </g><g> <g> <g> <path d="M362,0H135.872C63.488,0,0,62.608,0,133.984v226.128C0,431.232,64.768,496,135.872,496H362 c71.376,0,134-63.504,134-135.888V133.984C496,62.608,433.376,0,362,0z M464,360.112C464,414.48,415.376,464,362,464H135.872 C82.48,464,32,413.52,32,360.112V133.984C32,80.608,81.504,32,135.872,32H362c53.376,0,102,48.608,102,101.984V360.112z"/> <path d="M388.016,147.12c-14.336-15.6-30.576-17.536-38.896-18.512c-39.472-2.976-98.976-4.848-100.064-4.864h-0.144 c-0.16,0-0.336,0-0.496,0c-0.592,0.016-60.016,1.888-100.208,4.928c-5.632,0.672-22.768,2.768-37.824,19.184 c-11.52,12.16-14.688,34.048-15.248,38.736C95.04,187.6,92.8,211.504,92.8,235.824v22.352c0,24.32,2.192,48.176,2.32,49.424 c0.448,4.272,3.312,26.272,14.736,38.336c12.896,14.096,28.64,16.064,37.104,17.104c1.056,0.128,1.984,0.24,4.192,0.592 c23.072,2.32,94.448,3.024,97.648,3.056c2.448,0,60.24-0.128,99.952-3.104c0.288-0.016,2.048-0.224,2.352-0.256 c6.704-0.72,22.4-2.368,35.984-17.2c11.648-12.32,14.32-34.384,14.8-39.376c0.064-0.992,1.328-24.56,1.328-48.576v-22.352 c0-23.984-1.28-48.016-1.328-49.088C401.632,182.288,399.728,159.504,388.016,147.12z M371.216,258.16 c0,22.912-1.232,46.16-1.216,46.16c-0.672,6.864-3.52,16.992-6.336,19.984c-5.584,6.096-10.848,6.656-15.936,7.184l-1.376,0.176 c-38.512,2.88-97.008,3.008-97.408,3.008c-0.72,0-72.928-0.72-93.12-2.688c-1.376-0.272-3.04-0.48-4.912-0.72 c-5.872-0.736-12.512-1.552-17.632-7.152c-2.768-2.896-5.568-12.864-6.336-19.728c-0.016-0.24-2.144-23.36-2.144-46.224v-22.352 c0-22.656,2.144-45.744,2.144-45.744c0.896-7.184,3.872-17.248,6.832-20.416c6.432-6.992,13.152-8.608,17.552-9.168 c37.008-2.784,92.272-4.576,97.648-4.752c5.376,0.16,60.704,1.968,97.744,4.768c4.816,0.576,11.424,1.36,17.888,8.4 c2.256,2.384,4.848,11.952,5.328,19.584c0.016,0.256,1.28,24.208,1.28,47.328V258.16z"/> </g> </g> </g></symbol><symbol id="instagram" viewBox="0 0 496 496"><title>instagram</title><g> <g> <path d="M290.912,214.208c-9.968-13.792-26.016-22.032-42.944-22.032s-32.976,8.24-42.944,22.048c-6.544,9.072-10,19.76-10,30.896 c0,29.2,23.744,52.928,52.944,52.928s52.976-23.728,52.976-52.944C300.944,233.984,297.472,223.296,290.912,214.208z M247.968,266.048c-11.552,0-20.944-9.392-20.944-20.928c0-4.368,1.36-8.576,3.952-12.16c4.016-5.568,10.224-8.768,16.992-8.768 s12.976,3.184,16.992,8.752c2.608,3.616,3.984,7.824,3.984,12.176C268.944,256.672,259.536,266.048,247.968,266.048z"/> </g> </g><g> <g> <path d="M402.704,216.528h-79.376c-4.928,0-9.584,2.272-12.608,6.144s-4.112,8.928-2.928,13.712 c2.096,8.416,3.984,12.384,5.424,14.48c0.08,0.624,0.08,1.424,0.08,2.544c0,34.496-28.08,60.512-65.312,60.512 c-38.464,0-65.328-23.888-65.328-58.096c0-2.592,0.16-3.264,0.16-3.264c0.144-0.56,0.384-1.008,0.624-1.6 c1.12-2.688,2.8-6.752,4.736-14.592c1.184-4.768,0.112-9.824-2.928-13.696c-3.04-3.872-7.68-6.144-12.608-6.144H93.328 c-8.832,0-16,7.168-16,16c0,8.832,7.168,16,16,16h57.728c-0.272,2.016-0.416,4.384-0.416,7.296 c0,51.36,41.84,90.096,97.328,90.096c55.472,0,97.312-39.76,97.344-92.512c0-1.84-0.064-3.44-0.176-4.88h57.568 c8.832,0,16-7.168,16-16C418.704,223.696,411.536,216.528,402.704,216.528z"/> </g> </g><g> <g> <path d="M396.704,145.696c-0.016,0-0.032,0-0.032,0L328,145.84l-0.144-52.608c-0.016-8.832-7.184-15.968-16-15.968 c-0.016,0-0.016,0-0.032,0c-8.848,0.016-15.984,7.2-15.968,16.032l0.176,68.608c0.016,8.832,7.184,15.968,16,15.968 c0,0,0.016,0,0.048,0l84.656-0.176c8.832-0.016,15.984-7.2,15.968-16.032C412.688,152.832,405.52,145.696,396.704,145.696z"/> </g> </g><g> <g> <g> <path d="M339.216,77.328H156.72c-42.288,0-79.392,34.32-79.392,73.44v182.48c0,38.448,36.64,85.424,79.392,85.424h182.496 c42.784,0,79.456-46.976,79.456-85.424v-182.48C418.672,111.648,381.552,77.328,339.216,77.328z M386.672,333.248 c0,24.464-25.728,53.424-47.456,53.424H156.72c-21.696,0-47.392-28.96-47.392-53.424v-182.48c0-21.296,23.024-41.44,47.392-41.44 h182.496c24.4,0,47.456,20.144,47.456,41.44V333.248z"/> <path d="M366.976,0H128.992C53.04,0,0,50.592,0,123.04v237.92C0,436.688,56.656,496,128.992,496h237.984 C439.328,496,496,436.688,496,360.96V123.04C496,50.608,442.944,0,366.976,0z M464,360.96C464,419.696,422.304,464,366.976,464 H128.992C73.696,464,32,419.712,32,360.96V123.04C32,67.728,70.064,32,128.992,32h237.984C425.92,32,464,67.728,464,123.04 V360.96z"/> </g> </g> </g></symbol><symbol id="twitter" viewBox="0 0 496 496"><title>twitter</title><path d="M365.008,0H130.992C57.536,0,0,57.536,0,130.992v234.016C0,438.464,57.536,496,130.992,496h234.016 C438.464,496,496,438.464,496,365.008V130.992C496,57.536,438.448,0,365.008,0z M464,365.008 c0,55.52-43.488,98.992-98.992,98.992H130.992C75.488,464,32,420.512,32,365.008V130.992C32,75.488,75.488,32,130.992,32h234.016 C420.528,32,464,75.488,464,130.992V365.008z"/><path d="M403.984,126.64c-5.136-3.76-12.016-4.08-17.504-0.88c-5.472,3.216-17.6,4.8-27.328,6.08c-2.016,0.272-4,0.528-5.92,0.8 c-13.616-11.296-31.008-17.632-48.944-17.632c-40.4,0-73.552,31.264-75.904,70.592c-36.64-6.176-70.192-25.28-93.968-53.984 c-3.536-4.288-9.024-6.384-14.56-5.664c-5.504,0.768-10.208,4.336-12.432,9.424c-1.024,2.336-9.952,24.304-9.952,78.64 c0,47.056,37.136,81.632,62.608,99.824c-17.424,7.92-37.504,10.832-56.576,8.72c-7.456-0.8-14.432,3.584-16.896,10.608 c-2.464,7.04,0.256,14.848,6.56,18.832c30.08,18.976,64.848,29.008,100.56,29.008c114.688,0,184.096-90.096,186.672-178.928 c3.296-4.784,9.584-14.096,20.208-30.432c4.256-6.576,7.824-20.752,9.568-28.608C411.568,136.832,409.12,130.384,403.984,126.64z M351.536,187.536c-1.968,2.72-3.04,6.016-3.04,9.376c0,63.152-48.016,152.096-154.752,152.096 c-9.648,0-19.216-0.88-28.592-2.608c12.512-4.736,24.336-11.344,35.2-19.712c4.352-3.344,6.672-8.72,6.16-14.176 c-0.512-5.456-3.792-10.288-8.704-12.768c-0.688-0.352-68.32-35.92-68.32-85.712c0-16.688,0.896-29.808,2.08-39.792 c31.408,27.04,71.376,43.216,113.44,45.296c0.32,0.016,0.656,0.032,0.96,0.016c9.312-0.272,16.16-7.104,16.16-16 c0-2.208-0.448-4.304-1.264-6.224c-0.4-2.4-0.608-4.816-0.608-7.232c0-23.76,19.744-43.088,44.032-43.088 c12.192,0,23.92,4.992,32.192,13.68c3.776,3.936,9.296,5.712,14.624,4.672c3.632-0.688,7.824-1.232,12.224-1.808 c1.568-0.208,3.152-0.416,4.768-0.64C356.08,181.216,351.744,187.248,351.536,187.536z"/></symbol><symbol id="facebook" viewBox="0 0 496 496"><title>facebook</title><path d="M317.312,170.128h-1.696c5.984-2.304,10.24-8.128,10.24-14.928V99.648c0-8.816-7.12-15.968-15.936-16l-45.856-0.192 c-57.92,0-78.464,42.16-78.464,78.256v8.416c-8.592,0.288-15.472,7.344-15.472,16V248c0,8.672,6.88,15.712,15.472,16v138.672 c0,8.832,7.168,16,16,16h61.872c8.832,0,16-7.168,16-16V264h32.416c8.304,0,15.216-6.336,15.92-14.592l5.44-61.872 c0.384-4.48-1.12-8.896-4.144-12.208C326.08,172.016,321.792,170.128,317.312,170.128z M297.232,232h-33.76 c-8.832,0-16,7.168-16,16v138.672H217.6V248c0-8.672-6.88-15.712-15.472-16v-29.872c8.592-0.288,15.472-7.344,15.472-16v-24.4 c0-17.28,6.048-46.256,46.4-46.256l29.856,0.128v23.568l-16.048-0.096c-28.88,0-30.336,21.456-30.336,25.76v21.296 c0,8.832,7.168,16,16,16h36.384L297.232,232z"/><path d="M366.8,0H129.136C54.32,0,0,54.336,0,129.184v237.648C0,441.664,54.304,496,129.136,496H366.8 c74.864,0,129.2-54.336,129.2-129.168V129.184C496,54.336,441.664,0,366.8,0z M464,366.832c0,57.2-39.968,97.168-97.2,97.168 H129.136C71.952,464,32,424.048,32,366.832V129.184C32,71.968,71.952,32,129.136,32H366.8c57.232,0,97.2,39.968,97.2,97.184 V366.832z"/></symbol><symbol id="snapchat" viewBox="0 0 496 496"><title>snapchat</title><path d="M400.32,306.768c-0.384-0.336-0.816-0.656-1.232-0.96c-0.32-0.208-0.624-0.4-0.944-0.608 c-0.112-0.064-0.24-0.144-0.368-0.224c-0.096-0.064-0.208-0.128-0.336-0.192c-4.224-2.464-8.192-3.488-11.344-4.288 c-0.432-0.144-0.896-0.288-1.344-0.416c-10.72-3.552-21.168-11.344-29.44-21.936c-3.872-5.04-6.96-10.032-9.184-14.944 c0.368-0.176,0.784-0.336,1.248-0.528c0.4-0.096,0.8-0.208,1.2-0.352c6.944-2.4,14.272-5.216,21.68-11.168 c0.64-0.48,1.248-0.976,1.824-1.52c1.712-1.664,3.936-4.016,5.664-7.456c2.944-5.696,3.28-12.688,0.944-18.624 c-0.208-0.576-0.432-1.12-0.688-1.648c-3.76-7.664-9.984-11.2-12.64-12.72c-6.72-3.808-14.928-4.784-22.496-2.576 c0.048-1.248,0.08-2.496,0.096-3.696l0.048-1.936c0.304-10.352,0.624-21.072-0.992-32.464c0-0.048,0-0.08-0.016-0.128 c-0.032-0.288-0.08-0.544-0.128-0.832c-3.904-21.072-17.168-40.928-36.432-54.496c-12.608-8.816-27.904-14.272-44.048-15.76 c-4.352-0.432-8.672-0.624-12.992-0.624l-1.76,0.016c-16.16,0.096-39.632,3.52-59.68,19.232 c-12.72,9.92-22.816,23.072-29.392,38.496c-6.064,15.328-5.824,30.272-4.992,45.392l0.384,6.688 c0.016,0.24,0.032,0.448,0.048,0.672l-1.824-0.544c-0.352-0.112-0.72-0.208-1.056-0.288c-7.408-1.616-15.264-0.048-21.632,4.336 c-0.336,0.208-0.64,0.416-0.96,0.656c-9.232,6.352-11.44,14.368-11.68,20.624c0,1.008,0.16,2.848,0.368,3.84 c1.056,5.504,4.112,10.624,8.576,14.384c1.28,1.072,2.48,1.936,3.792,2.8c0.368,0.32,0.768,0.608,1.152,0.864 c6.448,4.32,13.088,6.672,18.416,8.56l2.096,0.832c-0.256,0.592-0.576,1.28-0.96,2.08c-5.776,11.376-14.288,21.136-24.608,28.208 c-5.024,3.44-10.944,6.128-17.072,7.792v0.048c-0.688,0.16-1.36,0.368-1.696,0.464c-2.832,0.816-10.384,2.976-15.12,10.16 c-0.928,1.248-2.064,3.44-2.592,4.912c-2.608,7.328-1.04,15.696,3.968,21.664c2.672,3.264,5.584,5.152,7.664,6.304 c0.096,0.048,0.176,0.096,0.256,0.144v0.016c7.808,4.48,15.904,6.512,22.4,8.16l1.584,0.384c0.272,0.08,0.528,0.144,0.816,0.208 l0.16,0.048c0.064,0.016,0.144,0.016,0.208,0.032l3.088,0.656c0.512,2.32,1.056,4.72,1.76,7.04 c2.016,6.848,7.616,12.08,14.816,13.68c4.656,0.976,9.536,0.272,11.968-0.464c9.84-1.68,18.944-2.624,24.496-1.232 c5.44,1.424,11.184,5.136,17.84,9.44c2.464,1.6,4.944,3.184,7.488,4.736c0.096,0.08,0.208,0.144,0.336,0.224 c8.496,5.28,18.928,10.752,31.664,11.232c2.096,0.112,4.192,0.16,6.272,0.16c5.392,0,10.688-0.32,14.88-0.576 c0.528,0,1.168-0.032,1.696-0.08c7.936-0.784,15.6-3.36,22.288-7.472c0.096-0.048,0.176-0.112,0.272-0.16 c4.208-2.416,8.256-4.976,12.224-7.504c5.84-3.728,11.36-7.248,16.704-9.648c0.992-0.16,2.928-0.256,4.4-0.336l2.928-0.176 c0.016,0,0.048-0.016,0.064-0.016l4.352-0.064c6.336,0,12.8,0.432,18.88,1.248c1.488,0.24,3.872,0.256,5.344,0.096 c5.344-0.656,10.512-3.584,13.6-7.616c2.784-3.52,3.616-6.848,3.744-7.344c0.112-0.336,0.224-0.704,0.32-1.056 c0-0.016,0.016-0.032,0.016-0.048l1.024-3.552c0.016-0.096,0.048-0.192,0.08-0.304c7.088-1.216,13.248-3.488,18.8-5.504 l1.92-0.704c0.576-0.208,1.152-0.432,1.712-0.688l0.016,0.016c3.152-1.28,9.728-3.968,14.608-10.784 c0.256-0.336,0.464-0.688,0.688-1.04c3.056-4.768,4.144-10.592,3.008-16.16C407.472,314.64,404.528,309.984,400.32,306.768z M344.352,330.432c-3.136,3.584-4.88,7.536-6.128,11.36c-6.176-0.496-12.288-0.624-18.448-0.448c-0.384,0-0.768,0.016-1.12,0.048 l-2.896,0.16c-4.24,0.24-9.024,0.496-13.936,2.256c-0.736,0.272-1.44,0.608-2.112,0.96c-7.392,3.344-14.096,7.6-20.576,11.744 c-3.408,2.144-6.832,4.352-10.432,6.432c-0.464,0.24-0.928,0.48-1.36,0.768c-2.624,1.68-5.712,2.736-8.528,3.008 c-4.544,0.288-9.152,0.608-13.824,0.608c-1.136,0-2.272-0.032-3.776-0.08c-0.384-0.048-0.8-0.08-1.216-0.016 c-5.216-0.192-10.592-3.056-15.664-6.176c-0.208-0.128-0.4-0.256-0.608-0.384c-2.416-1.456-4.768-2.976-7.104-4.48 c-8.224-5.312-16.72-10.816-27.312-13.584c-9.344-2.32-20.56-1.984-31.024-0.4c-0.288-1.088-0.656-2.224-1.088-3.488 l-0.816-2.096c-0.192-0.544-0.72-1.856-0.992-2.384c-1.712-3.392-4.544-6.08-8.048-7.568c-3.552-1.52-7.008-2.32-10.384-3.008 c2-1.152,3.936-2.368,5.84-3.648c14.768-10.128,26.88-24.016,35.152-40.304c3.392-6.864,7.024-16.032,4.704-25.856 c-1.216-5.2-4.144-9.824-8.592-13.616c5.168-1.808,9.264-6.48,10.592-11.856c0.176-0.736,0.32-1.488,0.4-2.256 c0.752-7.44,0.288-14.656-0.16-21.648l-0.368-6.32c-0.656-11.984-0.896-22.656,2.656-31.648 c4.272-10,10.992-18.768,19.488-25.392c10.096-7.92,24.368-12.336,41.728-12.448c3.216,0,6.448,0.128,9.92,0.48 c10.768,0.992,20.72,4.48,28.752,10.096c12.32,8.688,20.8,20.976,23.28,33.792c1.216,8.688,0.96,17.584,0.672,27.008 l-0.064,2.256c-0.032,2.496-0.144,4.976-0.24,7.408c-0.192,4.48-0.352,8.864-0.208,13.184c0,0.24,0.192,2.768,0.208,3.008 c0.48,6.208,4.528,11.584,10.368,13.776c0.544,0.208,1.104,0.384,1.68,0.56c-1.952,1.6-3.776,3.472-5.392,5.664 c-0.016,0.032-0.048,0.064-0.064,0.096c-4.64,6.224-5.76,14.64-3.168,23.248c0.16,0.56,0.32,1.12,0.528,1.664 c3.376,9.024,8.512,18.016,15.328,26.832c8.416,10.8,18.272,19.488,29.088,25.696 C353.616,323.968,348.672,326.176,344.352,330.432z"/><path d="M363.968,0H131.984C59.2,0,0,59.2,0,131.984v231.984C0,436.768,59.2,496,131.984,496h231.984 C436.768,496,496,436.768,496,363.968V131.984C496,59.2,436.768,0,363.968,0z M464,363.968C464,419.12,419.12,464,363.968,464 H131.984C76.864,464,32,419.12,32,363.968V131.984C32,76.864,76.864,32,131.984,32h231.984C419.12,32,464,76.864,464,131.984 V363.968z"/></symbol><symbol id="search" viewBox="0 0 612 612"><title>search</title><path d="M598.221,531.586l-110.58-110.542c30.314-43.443,48.228-96.149,48.228-153.105 c0-147.976-119.958-267.934-267.934-267.934S0,119.963,0,267.939s119.958,267.934,267.934,267.934 c56.956,0,109.662-17.913,153.105-48.228l110.542,110.542c18.411,18.41,48.229,18.41,66.64,0 C616.593,579.814,616.593,549.997,598.221,531.586z M267.934,459.32c-105.681,0-191.381-85.7-191.381-191.381 c0-105.681,85.701-191.381,191.381-191.381c105.681,0,191.381,85.701,191.381,191.381 C459.315,373.62,373.615,459.32,267.934,459.32z"/></symbol><symbol id="shopping-cart" viewBox="0 0 483.688 483.688"><title>shopping-cart</title><path d="M473.6,92.43c-8.7-10.6-21.9-16.5-35.6-16.5H140.7c-8.5,0-16.6,2.4-23.6,6.7l-15.2-53.1c-2.5-8.7-10.4-14.7-19.4-14.7H59.4 H15.3c-8.4,0-15.3,6.8-15.3,15.3v1.6c0,8.4,6.8,15.3,15.3,15.3h57.8l29.5,104.3l40.6,143.9c-23.1,5.8-40.2,26.7-40.2,51.5 c0,28.1,21.9,51.2,49.6,53c-2.3,6.6-3.4,13.9-2.8,21.4c2,25.4,22.7,45.9,48.1,47.6c30.3,2.1,55.6-22,55.6-51.8c0-6-1-11.7-2.9-17.1 h60.8c-2.5,7.1-3.5,15-2.6,23.1c2.8,24.6,23.1,44,47.9,45.8c30.3,2.1,55.7-21.9,55.7-51.8c0-28.9-24-52-52.8-52H156.5 c-9.9,0-18.3-7.7-18.7-17.5c-0.4-10.4,7.9-18.9,18.2-18.9h30.5h165.3h46.5c20.6,0,38.6-14.1,43.6-34.1l40.4-162.6 C485.8,117.83,482.6,103.53,473.6,92.43z M360.5,399.73c9.4,0,17.1,7.7,17.1,17.1s-7.7,17.1-17.1,17.1s-17.1-7.7-17.1-17.1 S351,399.73,360.5,399.73z M201.6,399.73c9.4,0,17.1,7.7,17.1,17.1s-7.7,17.1-17.1,17.1c-9.4,0-17.1-7.7-17.1-17.1 C184.5,407.43,192.1,399.73,201.6,399.73z M138.8,151.13l-7.8-27.5c-1.2-4.2,0.5-7.3,1.7-8.8c1.1-1.5,3.7-4,8-4h32.6l8.9,40.4 h-43.4V151.13z M148.6,185.93h41.2l8.2,37.4h-38.9L148.6,185.93z M186.5,293.53c-4.5,0-8.5-3-9.7-7.4l-7.9-28h36.7l7.8,35.3h-26.9 V293.53z M273.6,293.53H249l-7.8-35.3h32.3v35.3H273.6z M273.6,223.33h-40l-8.2-37.4h48.2V223.33z M273.6,151.13h-55.8l-8.9-40.4 h64.7V151.13z M336,293.53h-27.5v-35.3h34.9L336,293.53z M350.8,223.33h-42.3v-37.4h50.2L350.8,223.33z M308.5,151.13v-40.4h66 l-8.5,40.4H308.5z M408.2,285.93c-1.1,4.5-5.1,7.7-9.8,7.7h-26.8l7.5-35.3h36L408.2,285.93z M423.7,223.33h-37.3l7.9-37.4H433 L423.7,223.33z M448.5,123.23l-6.9,27.8h-40l8.5-40.4h28.6c4.3,0,6.8,2.4,7.9,3.9C447.8,116.03,449.6,119.13,448.5,123.23z"/></symbol></svg>